<mxfile host="Electron" agent="Mozilla/5.0 (Windows NT 10.0; Win64; x64) AppleWebKit/537.36 (KHTML, like Gecko) draw.io/25.0.2 Chrome/128.0.6613.186 Electron/32.2.5 Safari/537.36" version="25.0.2">
  <diagram name="Seite-1" id="RMShgWfUDbiw63N_E7oN">
    <mxGraphModel dx="1050" dy="621" grid="1" gridSize="10" guides="1" tooltips="1" connect="1" arrows="1" fold="1" page="1" pageScale="1" pageWidth="827" pageHeight="1169" math="0" shadow="0">
      <root>
        <mxCell id="0" />
        <mxCell id="1" parent="0" />
        <mxCell id="cu0nxGEvVgkYJXmCs19b-1" value="" style="rounded=0;orthogonalLoop=1;jettySize=auto;html=1;endArrow=halfCircle;endFill=0;endSize=6;strokeWidth=1;sketch=0;fontSize=12;curved=1;" parent="1" source="cu0nxGEvVgkYJXmCs19b-5" target="cu0nxGEvVgkYJXmCs19b-2" edge="1">
          <mxGeometry relative="1" as="geometry">
            <mxPoint x="235" y="375" as="sourcePoint" />
          </mxGeometry>
        </mxCell>
        <mxCell id="cu0nxGEvVgkYJXmCs19b-2" value="" style="ellipse;whiteSpace=wrap;html=1;align=center;aspect=fixed;fillColor=none;strokeColor=none;resizable=0;perimeter=centerPerimeter;rotatable=0;allowArrows=0;points=[];outlineConnect=1;" parent="1" vertex="1">
          <mxGeometry x="210" y="370" width="10" height="10" as="geometry" />
        </mxCell>
        <mxCell id="cu0nxGEvVgkYJXmCs19b-3" value="&amp;lt;&amp;lt;component&amp;gt;&amp;gt;&lt;div&gt;&lt;br&gt;&lt;/div&gt;&lt;div&gt;CreateUserAccount&lt;/div&gt;" style="shape=module;align=left;spacingLeft=20;align=center;verticalAlign=top;whiteSpace=wrap;html=1;" parent="1" vertex="1">
          <mxGeometry x="330" y="350" width="150" height="50" as="geometry" />
        </mxCell>
        <mxCell id="cu0nxGEvVgkYJXmCs19b-4" value="CreateUser" style="text;html=1;align=center;verticalAlign=middle;whiteSpace=wrap;rounded=0;" parent="1" vertex="1">
          <mxGeometry x="170" y="390" width="60" height="30" as="geometry" />
        </mxCell>
        <mxCell id="cu0nxGEvVgkYJXmCs19b-5" value="" style="line;strokeWidth=1;fillColor=none;align=left;verticalAlign=middle;spacingTop=-1;spacingLeft=3;spacingRight=3;rotatable=0;labelPosition=right;points=[];portConstraint=eastwest;strokeColor=inherit;" parent="1" vertex="1">
          <mxGeometry x="215" y="371" width="125" height="8" as="geometry" />
        </mxCell>
        <mxCell id="cu0nxGEvVgkYJXmCs19b-6" value="" style="rounded=0;orthogonalLoop=1;jettySize=auto;html=1;endArrow=halfCircle;endFill=0;endSize=6;strokeWidth=1;sketch=0;fontSize=12;curved=1;" parent="1" target="cu0nxGEvVgkYJXmCs19b-7" edge="1">
          <mxGeometry relative="1" as="geometry">
            <mxPoint x="220" y="375" as="sourcePoint" />
          </mxGeometry>
        </mxCell>
        <mxCell id="cu0nxGEvVgkYJXmCs19b-7" value="" style="ellipse;whiteSpace=wrap;html=1;align=center;aspect=fixed;fillColor=none;strokeColor=none;resizable=0;perimeter=centerPerimeter;rotatable=0;allowArrows=0;points=[];outlineConnect=1;" parent="1" vertex="1">
          <mxGeometry x="195" y="370" width="10" height="10" as="geometry" />
        </mxCell>
        <mxCell id="cu0nxGEvVgkYJXmCs19b-8" value="" style="rounded=0;orthogonalLoop=1;jettySize=auto;html=1;endArrow=halfCircle;endFill=0;endSize=6;strokeWidth=1;sketch=0;" parent="1" source="cu0nxGEvVgkYJXmCs19b-12" target="cu0nxGEvVgkYJXmCs19b-10" edge="1">
          <mxGeometry relative="1" as="geometry">
            <mxPoint x="610" y="375" as="sourcePoint" />
          </mxGeometry>
        </mxCell>
        <mxCell id="cu0nxGEvVgkYJXmCs19b-9" value="" style="rounded=0;orthogonalLoop=1;jettySize=auto;html=1;endArrow=oval;endFill=0;sketch=0;sourcePerimeterSpacing=0;targetPerimeterSpacing=0;endSize=10;exitX=1;exitY=0.5;exitDx=0;exitDy=0;" parent="1" source="cu0nxGEvVgkYJXmCs19b-3" target="cu0nxGEvVgkYJXmCs19b-10" edge="1">
          <mxGeometry relative="1" as="geometry">
            <mxPoint x="570" y="375" as="sourcePoint" />
          </mxGeometry>
        </mxCell>
        <mxCell id="cu0nxGEvVgkYJXmCs19b-10" value="" style="ellipse;whiteSpace=wrap;html=1;align=center;aspect=fixed;fillColor=none;strokeColor=none;resizable=0;perimeter=centerPerimeter;rotatable=0;allowArrows=0;points=[];outlineConnect=1;" parent="1" vertex="1">
          <mxGeometry x="585" y="370" width="10" height="10" as="geometry" />
        </mxCell>
        <mxCell id="cu0nxGEvVgkYJXmCs19b-11" value="Button" style="text;html=1;align=center;verticalAlign=middle;whiteSpace=wrap;rounded=0;" parent="1" vertex="1">
          <mxGeometry x="525" y="390" width="60" height="30" as="geometry" />
        </mxCell>
        <mxCell id="cu0nxGEvVgkYJXmCs19b-12" value="&amp;lt;&amp;lt;component&amp;gt;&amp;gt;&lt;div&gt;&lt;br&gt;&lt;/div&gt;&lt;div&gt;CreateAuction&lt;/div&gt;" style="shape=module;align=left;spacingLeft=20;align=center;verticalAlign=top;whiteSpace=wrap;html=1;" parent="1" vertex="1">
          <mxGeometry x="660" y="310" width="120" height="50" as="geometry" />
        </mxCell>
        <mxCell id="cu0nxGEvVgkYJXmCs19b-14" value="" style="endArrow=none;html=1;rounded=0;" parent="1" edge="1">
          <mxGeometry width="50" height="50" relative="1" as="geometry">
            <mxPoint x="650" y="356" as="sourcePoint" />
            <mxPoint x="670" y="350" as="targetPoint" />
          </mxGeometry>
        </mxCell>
        <mxCell id="cu0nxGEvVgkYJXmCs19b-15" value="&amp;lt;&amp;lt;component&amp;gt;&amp;gt;&lt;div&gt;&lt;br&gt;&lt;/div&gt;&lt;div&gt;SearchProduct&lt;/div&gt;" style="shape=module;align=left;spacingLeft=20;align=center;verticalAlign=top;whiteSpace=wrap;html=1;" parent="1" vertex="1">
          <mxGeometry x="660" y="240" width="120" height="50" as="geometry" />
        </mxCell>
        <mxCell id="cu0nxGEvVgkYJXmCs19b-16" value="" style="endArrow=none;html=1;rounded=0;" parent="1" edge="1">
          <mxGeometry width="50" height="50" relative="1" as="geometry">
            <mxPoint x="595" y="370" as="sourcePoint" />
            <mxPoint x="673" y="290" as="targetPoint" />
          </mxGeometry>
        </mxCell>
        <mxCell id="cu0nxGEvVgkYJXmCs19b-17" value="&amp;lt;&amp;lt;component&amp;gt;&amp;gt;&lt;div&gt;&lt;br&gt;&lt;/div&gt;&lt;div&gt;TrackBiddingAndAuctions&lt;/div&gt;" style="shape=module;align=left;spacingLeft=20;align=center;verticalAlign=top;whiteSpace=wrap;html=1;" parent="1" vertex="1">
          <mxGeometry x="660" y="380" width="160" height="50" as="geometry" />
        </mxCell>
        <mxCell id="cu0nxGEvVgkYJXmCs19b-18" value="" style="endArrow=none;html=1;rounded=0;entryX=0.097;entryY=0.856;entryDx=0;entryDy=0;entryPerimeter=0;" parent="1" target="cu0nxGEvVgkYJXmCs19b-17" edge="1">
          <mxGeometry width="50" height="50" relative="1" as="geometry">
            <mxPoint x="590" y="380" as="sourcePoint" />
            <mxPoint x="660" y="460" as="targetPoint" />
          </mxGeometry>
        </mxCell>
        <mxCell id="cu0nxGEvVgkYJXmCs19b-19" value="" style="endArrow=none;html=1;rounded=0;" parent="1" edge="1">
          <mxGeometry width="50" height="50" relative="1" as="geometry">
            <mxPoint x="780" y="270" as="sourcePoint" />
            <mxPoint x="810" y="270" as="targetPoint" />
          </mxGeometry>
        </mxCell>
        <mxCell id="cu0nxGEvVgkYJXmCs19b-20" value="" style="endArrow=none;html=1;rounded=0;" parent="1" edge="1">
          <mxGeometry width="50" height="50" relative="1" as="geometry">
            <mxPoint x="810" y="270" as="sourcePoint" />
            <mxPoint x="810" y="200" as="targetPoint" />
          </mxGeometry>
        </mxCell>
        <mxCell id="cu0nxGEvVgkYJXmCs19b-21" value="" style="endArrow=none;html=1;rounded=0;" parent="1" edge="1">
          <mxGeometry width="50" height="50" relative="1" as="geometry">
            <mxPoint x="810" y="200" as="sourcePoint" />
            <mxPoint x="120" y="200" as="targetPoint" />
          </mxGeometry>
        </mxCell>
        <mxCell id="cu0nxGEvVgkYJXmCs19b-22" value="" style="endArrow=none;html=1;rounded=0;" parent="1" edge="1">
          <mxGeometry width="50" height="50" relative="1" as="geometry">
            <mxPoint x="120" y="200" as="sourcePoint" />
            <mxPoint x="120" y="120" as="targetPoint" />
          </mxGeometry>
        </mxCell>
        <mxCell id="cu0nxGEvVgkYJXmCs19b-23" value="" style="rounded=0;orthogonalLoop=1;jettySize=auto;html=1;endArrow=none;endFill=0;endSize=6;strokeWidth=1;sketch=0;" parent="1" edge="1">
          <mxGeometry width="50" height="50" relative="1" as="geometry">
            <mxPoint x="120" y="125" as="sourcePoint" />
            <mxPoint x="180" y="124.5" as="targetPoint" />
            <Array as="points">
              <mxPoint x="140" y="124.5" />
              <mxPoint x="150" y="125" />
            </Array>
          </mxGeometry>
        </mxCell>
        <mxCell id="k68y4SuHxtfObmH30ZuN-8" value="" style="rounded=0;orthogonalLoop=1;jettySize=auto;html=1;endArrow=halfCircle;endFill=0;endSize=6;strokeWidth=1;sketch=0;" edge="1" target="k68y4SuHxtfObmH30ZuN-10" parent="1" source="k68y4SuHxtfObmH30ZuN-13">
          <mxGeometry relative="1" as="geometry">
            <mxPoint x="220" y="125" as="sourcePoint" />
          </mxGeometry>
        </mxCell>
        <mxCell id="k68y4SuHxtfObmH30ZuN-9" value="" style="rounded=0;orthogonalLoop=1;jettySize=auto;html=1;endArrow=oval;endFill=0;sketch=0;sourcePerimeterSpacing=0;targetPerimeterSpacing=0;endSize=10;" edge="1" target="k68y4SuHxtfObmH30ZuN-10" parent="1">
          <mxGeometry relative="1" as="geometry">
            <mxPoint x="180" y="125" as="sourcePoint" />
          </mxGeometry>
        </mxCell>
        <mxCell id="k68y4SuHxtfObmH30ZuN-10" value="" style="ellipse;whiteSpace=wrap;html=1;align=center;aspect=fixed;fillColor=none;strokeColor=none;resizable=0;perimeter=centerPerimeter;rotatable=0;allowArrows=0;points=[];outlineConnect=1;" vertex="1" parent="1">
          <mxGeometry x="195" y="120" width="10" height="10" as="geometry" />
        </mxCell>
        <mxCell id="k68y4SuHxtfObmH30ZuN-11" value="Bid" style="text;html=1;align=center;verticalAlign=middle;whiteSpace=wrap;rounded=0;" vertex="1" parent="1">
          <mxGeometry x="170" y="140" width="60" height="30" as="geometry" />
        </mxCell>
        <mxCell id="k68y4SuHxtfObmH30ZuN-12" value="&amp;lt;&amp;lt;component&amp;gt;&amp;gt;&lt;div&gt;&lt;br&gt;&lt;/div&gt;&lt;div&gt;BidOnProduct&lt;/div&gt;" style="shape=module;align=left;spacingLeft=20;align=center;verticalAlign=top;whiteSpace=wrap;html=1;" vertex="1" parent="1">
          <mxGeometry x="340" y="100" width="120" height="50" as="geometry" />
        </mxCell>
        <mxCell id="k68y4SuHxtfObmH30ZuN-13" value="" style="line;strokeWidth=1;fillColor=none;align=left;verticalAlign=middle;spacingTop=-1;spacingLeft=3;spacingRight=3;rotatable=0;labelPosition=right;points=[];portConstraint=eastwest;strokeColor=inherit;" vertex="1" parent="1">
          <mxGeometry x="240" y="121" width="110" height="8" as="geometry" />
        </mxCell>
      </root>
    </mxGraphModel>
  </diagram>
</mxfile>
